<svg width="50" height="49" xmlns="http://www.w3.org/2000/svg" xmlns:xlink="http://www.w3.org/1999/xlink" xml:space="preserve" overflow="hidden"><g transform="translate(-1018 -404)"><g><g><g><g><path d="M1048.96 434.83C1048.96 435.316 1048.56 435.712 1048.07 435.712 1047.59 435.712 1047.19 435.316 1047.19 434.83 1047.19 434.345 1047.59 433.949 1048.07 433.949 1048.56 433.949 1048.96 434.345 1048.96 434.83L1048.96 434.83ZM1051.84 416.895C1051.35 416.895 1050.96 416.5 1050.96 416.014 1050.96 415.527 1051.35 415.132 1051.84 415.132 1052.32 415.132 1052.72 415.527 1052.72 416.014 1052.72 416.5 1052.32 416.895 1051.84 416.895ZM1048.42 425.691C1048.42 426.177 1048.02 426.572 1047.54 426.572 1047.05 426.572 1046.65 426.177 1046.65 425.691 1046.65 425.205 1047.05 424.809 1047.54 424.809 1048.02 424.809 1048.42 425.205 1048.42 425.691ZM1053.11 441.282C1053.11 440.796 1053.5 440.4 1053.99 440.4 1054.47 440.4 1054.87 440.796 1054.87 441.282 1054.87 441.767 1054.47 442.163 1053.99 442.163 1053.5 442.163 1053.11 441.767 1053.11 441.282ZM1057.53 436.303C1057.21 436.479 1057.02 436.812 1057.02 437.174L1057.02 443.365 1049.88 447.587 1049.88 442.551 1051.41 442.551C1051.89 443.502 1052.86 444.163 1053.99 444.163 1055.58 444.163 1056.87 442.871 1056.87 441.282 1056.87 439.693 1055.58 438.4 1053.99 438.4 1052.65 438.4 1051.54 439.317 1051.21 440.551L1048.88 440.551C1048.33 440.551 1047.88 440.998 1047.88 441.551L1047.88 448.769 1047.48 449.009 1043.97 446.976 1043.97 421.046 1046.81 421.046 1046.81 422.915C1045.57 423.241 1044.65 424.356 1044.65 425.691 1044.65 427.28 1045.95 428.572 1047.54 428.572 1049.13 428.572 1050.42 427.28 1050.42 425.691 1050.42 424.559 1049.76 423.588 1048.81 423.117L1048.81 421.046 1052.11 421.046C1052.66 421.046 1053.11 420.599 1053.11 420.046L1053.11 418.588C1054.06 418.117 1054.72 417.145 1054.72 416.014 1054.72 414.425 1053.43 413.132 1051.84 413.132 1050.25 413.132 1048.96 414.425 1048.96 416.014 1048.96 417.349 1049.87 418.464 1051.11 418.79L1051.11 419.046 1043.97 419.046 1043.97 411.804 1048.37 409.17 1057.56 414.774 1057.56 420.938C1057.56 421.299 1057.75 421.631 1058.06 421.809L1062.93 424.569 1062.93 427.647 1053.72 427.647C1053.17 427.647 1052.72 428.095 1052.72 428.647L1052.72 433.561 1050.65 433.561C1050.18 432.61 1049.21 431.949 1048.07 431.949 1046.49 431.949 1045.19 433.241 1045.19 434.83 1045.19 436.419 1046.49 437.712 1048.07 437.712 1049.41 437.712 1050.52 436.795 1050.85 435.561L1053.72 435.561C1054.27 435.561 1054.72 435.114 1054.72 434.561L1054.72 429.647 1062.93 429.647 1062.93 433.26 1057.53 436.303ZM1036.25 433.411C1036.73 433.411 1037.13 433.807 1037.13 434.293 1037.13 434.779 1036.73 435.175 1036.25 435.175 1035.76 435.175 1035.36 434.779 1035.36 434.293 1035.36 433.807 1035.76 433.411 1036.25 433.411ZM1034.83 417.627C1034.83 417.141 1035.22 416.745 1035.71 416.745 1036.19 416.745 1036.59 417.141 1036.59 417.627 1036.59 418.113 1036.19 418.509 1035.71 418.509 1035.22 418.509 1034.83 418.113 1034.83 417.627ZM1031.21 425.691C1031.21 426.177 1030.82 426.572 1030.33 426.572 1029.85 426.572 1029.45 426.177 1029.45 425.691 1029.45 425.205 1029.85 424.809 1030.33 424.809 1030.82 424.809 1031.21 425.205 1031.21 425.691ZM1036.44 442.894C1036.44 442.408 1036.84 442.013 1037.32 442.013 1037.81 442.013 1038.2 442.408 1038.2 442.894 1038.2 443.381 1037.81 443.776 1037.32 443.776 1036.84 443.776 1036.44 443.381 1036.44 442.894ZM1037.91 449.003 1028.38 443.363 1028.38 437.173C1028.38 436.809 1028.18 436.473 1027.86 436.297L1027.5 436.1 1030.14 436.1 1030.14 443.163C1030.14 443.716 1030.59 444.163 1031.14 444.163L1034.75 444.163C1035.22 445.114 1036.19 445.776 1037.32 445.776 1038.91 445.776 1040.2 444.483 1040.2 442.894 1040.2 441.306 1038.91 440.013 1037.32 440.013 1035.99 440.013 1034.87 440.93 1034.55 442.163L1032.14 442.163 1032.14 435.1C1032.14 434.547 1031.69 434.1 1031.14 434.1L1023.86 434.1 1023 433.625 1023 424.568 1027.87 421.807C1028.18 421.629 1028.38 421.297 1028.38 420.936L1028.38 418.357 1029.6 418.357 1029.6 422.915C1028.37 423.241 1027.45 424.356 1027.45 425.691 1027.45 427.28 1028.74 428.572 1030.33 428.572 1031.92 428.572 1033.21 427.28 1033.21 425.691 1033.21 424.56 1032.55 423.589 1031.6 423.117L1031.6 418.357 1032.93 418.357C1033.26 419.592 1034.37 420.509 1035.71 420.509 1037.3 420.509 1038.59 419.216 1038.59 417.627 1038.59 416.038 1037.3 414.745 1035.71 414.745 1034.58 414.745 1033.61 415.406 1033.14 416.357L1028.38 416.357 1028.38 414.772 1037.57 409.169 1041.97 411.803 1041.97 423.347 1035.98 423.347C1035.43 423.347 1034.98 423.794 1034.98 424.347L1034.98 431.719C1034.03 432.189 1033.36 433.161 1033.36 434.293 1033.36 435.882 1034.66 437.175 1036.25 437.175 1037.84 437.175 1039.13 435.882 1039.13 434.293 1039.13 432.958 1038.21 431.843 1036.98 431.517L1036.98 425.347 1041.97 425.347 1041.97 446.59 1037.91 449.003ZM1064.93 423.987C1064.93 423.627 1064.74 423.295 1064.43 423.117L1059.56 420.356 1059.56 414.213C1059.56 413.864 1059.38 413.541 1059.08 413.359L1048.89 407.148C1048.57 406.955 1048.18 406.952 1047.86 407.143L1042.97 410.07 1038.08 407.143C1037.76 406.951 1037.36 406.953 1037.04 407.147L1026.86 413.357C1026.56 413.539 1026.38 413.862 1026.38 414.211L1026.38 420.354 1021.51 423.116C1021.19 423.294 1021 423.626 1021 423.986L1021 434.216C1021 434.581 1021.2 434.916 1021.52 435.092L1026.38 437.764 1026.38 443.934C1026.38 444.287 1026.56 444.614 1026.87 444.794L1037.4 451.026C1037.72 451.213 1038.11 451.213 1038.43 451.025L1042.64 448.518 1046.98 451.032C1047.13 451.122 1047.31 451.167 1047.48 451.167 1047.66 451.167 1047.83 451.12 1047.99 451.027L1058.53 444.796C1058.83 444.616 1059.02 444.289 1059.02 443.935L1059.02 437.759 1064.42 434.716C1064.74 434.539 1064.93 434.206 1064.93 433.845L1064.93 423.987Z" fill="#01A88D" fill-rule="evenodd" fill-opacity="1"/></g></g></g></g></g></svg>