<svg width="49" height="49" xmlns="http://www.w3.org/2000/svg" xmlns:xlink="http://www.w3.org/1999/xlink" xml:space="preserve" overflow="hidden"><g transform="translate(-1016 -292)"><g><g><g><g><path d="M1024.97 295 1024.97 300.206 1022 300.206 1022 302.205 1024.97 302.205 1024.97 305.467 1022 305.467 1022 307.467 1024.97 307.467 1024.97 310.78 1022 310.78 1022 312.78 1024.97 312.78 1024.97 316.054 1022 316.054 1022 318.053 1024.97 318.053 1024.97 321.246 1022 321.246 1022 323.246 1024.97 323.246 1024.97 326.479 1022 326.479 1022 328.479 1024.97 328.479 1024.97 331.793 1022 331.793 1022 333.793 1024.97 333.793 1024.97 338.972 1060.59 338.972 1060.59 295 1024.97 295ZM1026.97 297 1058.59 297 1058.59 336.972 1026.97 336.972 1026.97 333.793 1030.05 333.793 1030.05 331.793 1026.97 331.793 1026.97 328.479 1030.05 328.479 1030.05 326.479 1026.97 326.479 1026.97 323.246 1030.05 323.246 1030.05 321.246 1026.97 321.246 1026.97 318.053 1030.05 318.053 1030.05 316.054 1026.97 316.054 1026.97 312.78 1030.05 312.78 1030.05 310.78 1026.97 310.78 1026.97 307.467 1030.05 307.467 1030.05 305.467 1026.97 305.467 1026.97 302.205 1030.05 302.205 1030.05 300.206 1026.97 300.206 1026.97 297ZM1033.86 302.205 1053.56 302.205 1053.56 300.205 1033.86 300.205 1033.86 302.205ZM1033.86 308.594 1053.56 308.594 1053.56 306.594 1033.86 306.594 1033.86 308.594ZM1033.86 314.927 1053.56 314.927 1053.56 312.926 1033.86 312.926 1033.86 314.927ZM1033.86 321.313 1043.76 321.313 1043.76 319.313 1033.86 319.313 1033.86 321.313Z" fill="#01A88D" fill-rule="evenodd" fill-opacity="1"/></g></g></g></g></g></svg>