<svg width="49" height="49" xmlns="http://www.w3.org/2000/svg" xmlns:xlink="http://www.w3.org/1999/xlink" xml:space="preserve" overflow="hidden"><g transform="translate(-1149 -292)"><g><g><g><g><path d="M1180.59 324 1189.67 332.26 1188.33 333.74 1179 325.26 1179 329 1177 329 1177 323C1177 322.448 1177.45 322 1178 322L1184 322 1184 324 1180.59 324ZM1191 315 1191 326 1189 326 1189 316 1166 316 1166 333 1182 333 1182 335 1165 335C1164.45 335 1164 334.552 1164 334L1164 315C1164 314.448 1164.45 314 1165 314L1190 314C1190.55 314 1191 314.448 1191 315ZM1185 310 1181 310 1181 308 1186 308C1186.55 308 1187 308.448 1187 309L1187 312 1185 312 1185 310ZM1165 310 1178 310 1178 308 1165 308 1165 310ZM1158 308 1162 308 1162 310 1159 310 1159 312 1157 312 1157 309C1157 308.448 1157.45 308 1158 308ZM1157 320 1159 320 1159 315 1157 315 1157 320ZM1159 325 1162 325 1162 327 1158 327C1157.45 327 1157 326.552 1157 326L1157 323 1159 323 1159 325ZM1163 301 1167 301 1167 299 1163 299 1163 301ZM1157 301 1161 301 1161 299 1157 299 1157 301ZM1154 337 1194 337 1194 305 1154 305 1154 337ZM1154 303 1194 303 1194 297 1154 297 1154 303ZM1195 295 1153 295C1152.45 295 1152 295.448 1152 296L1152 338C1152 338.552 1152.45 339 1153 339L1195 339C1195.55 339 1196 338.552 1196 338L1196 296C1196 295.448 1195.55 295 1195 295Z" fill="#01A88D" fill-rule="evenodd" fill-opacity="1"/></g></g></g></g></g></svg>