<svg width="50" height="48" xmlns="http://www.w3.org/2000/svg" xmlns:xlink="http://www.w3.org/1999/xlink" xml:space="preserve" overflow="hidden"><g transform="translate(-1150 -408)"><g><g><g><g><path d="M1157.46 439.135 1177.57 439.135 1177.57 437.135 1157.46 437.135 1157.46 439.135ZM1157.46 444.724 1177.57 444.724 1177.57 442.724 1157.46 442.724 1157.46 444.724ZM1194.67 439.431 1187.48 432.245C1186.99 432.838 1186.45 433.377 1185.85 433.859L1193.04 441.053C1193.49 441.499 1194.22 441.501 1194.67 441.053 1195.11 440.606 1195.11 439.878 1194.67 439.431ZM1180.25 436.241C1179.79 436.3 1179.32 436.34 1178.85 436.34 1176.06 436.34 1173.52 435.308 1171.56 433.614L1157.46 433.614 1157.46 431.614 1169.74 431.614C1169.02 430.608 1168.47 429.48 1168.12 428.265L1155 428.265 1155 447.968 1180.25 447.968 1180.25 436.241ZM1169.68 425.17C1169.68 430.227 1173.79 434.34 1178.85 434.34 1183.9 434.34 1188.02 430.227 1188.02 425.17 1188.02 420.114 1183.9 416 1178.85 416 1173.79 416 1169.68 420.114 1169.68 425.17ZM1197 440.241C1197 441.084 1196.67 441.874 1196.08 442.467 1195.47 443.08 1194.66 443.387 1193.85 443.387 1193.05 443.387 1192.24 443.08 1191.63 442.467L1184.16 434.994C1183.55 435.322 1182.92 435.592 1182.25 435.805L1182.25 448.968C1182.25 449.521 1181.81 449.968 1181.25 449.968L1154 449.968C1153.45 449.968 1153 449.521 1153 448.968L1153 427.265C1153 426.712 1153.45 426.265 1154 426.265L1167.73 426.265C1167.7 425.905 1167.68 425.539 1167.68 425.17 1167.68 419.011 1172.69 414 1178.85 414 1185.01 414 1190.02 419.011 1190.02 425.17 1190.02 427.124 1189.51 428.96 1188.62 430.559L1196.08 438.017C1196.67 438.61 1197 439.4 1197 440.241ZM1176.18 429.835 1172.77 426.973 1174.06 425.442 1176.75 427.7 1183.39 420.745 1184.84 422.126 1177.54 429.76C1177.35 429.965 1177.08 430.07 1176.82 430.07 1176.59 430.07 1176.36 429.992 1176.18 429.835Z" fill="#01A88D" fill-rule="evenodd" fill-opacity="1"/></g></g></g></g></g></svg>